<?xml version="1.0" encoding="UTF-8"?>
<svg xmlns="http://www.w3.org/2000/svg" viewBox="0 0 108 108" role="img" aria-labelledby="title desc">
  <title id="title">DroidMatch app mark</title>
  <desc id="desc">Two device endpoints connected by a warm matching bridge.</desc>
  <rect x="4" y="4" width="100" height="100" rx="24" fill="#101716"/>
  <path d="M48 31H42C31.5 31 24 39.5 24 50V58C24 68.5 32.5 77 43 77H48"
        fill="none" stroke="#76E6C5" stroke-width="8" stroke-linecap="round" stroke-linejoin="round"/>
  <path d="M60 31H66C76.5 31 85 39.5 85 50V58C85 68.5 76.5 77 66 77H60"
        fill="none" stroke="#F3F7F2" stroke-width="8" stroke-linecap="round" stroke-linejoin="round"/>
  <path d="M54 44C55.5 44 56.5 45 58 46.5L61.5 50C64.5 53 64.5 55 61.5 58L58 61.5C56.5 63 55.5 64 54 64C52.5 64 51.5 63 50 61.5L46.5 58C43.5 55 43.5 53 46.5 50L50 46.5C51.5 45 52.5 44 54 44Z" fill="#FFB66E"/>
</svg>
